<?xml version="1.0" encoding="UTF-8"?>
<svg id="Calque_2" data-name="Calque 2" xmlns="http://www.w3.org/2000/svg" viewBox="0 0 312.28 34.46">
  <defs>
    <style>
      .cls-1 {
        fill: #fff;
      }
    </style>
  </defs>
  <g id="Calque_1-2" data-name="Calque 1">
    <g>
      <path class="cls-1" d="M20.04,0H0v33.04h17.22c7.34,0,19.2-2.83,19.48-14.97C36.98,5.93,30.21,0,20.04,0ZM17.69,27.11c-5.08.24-10.94,0-10.94,0V5.93h10.28c9.32,0,12.52,5.93,12.52,10.16,0,4.99-4.05,10.64-11.86,11.02Z"/>
      <path class="cls-1" d="M66.35,0h-7.06l-18.92,33.04h8.19l3.86-6.22h21.08l3.3,6.22h8.75L66.35,0ZM55.9,20.33l7.06-12.05,6.21,12.05h-13.27Z"/>
      <path class="cls-1" d="M126.49,10.45c0-9.88-10.45-10.45-13.27-10.45h-22.02v33.04h6.77v-10.45h14.68l6.5,10.45h7.34l-6.78-11.58s6.78-1.13,6.78-11.01ZM108.84,16h-11.06V6.87h10.45c4.14,0,11.01-.19,10.82,4.61-.18,4.8-6.49,4.52-10.21,4.52Z"/>
      <path class="cls-1" d="M174.21,14.4v14.97c-1.98,1.69-5.93,5.08-17.51,5.08s-20.89-7.63-20.89-16.66S145.12,0,157.27,0s14.68,2.82,14.68,2.82v7.63s-6.87-3.58-14.78-3.58c-6.49,0-13.83,3.89-13.73,10.99.08,6.99,9.5,10,14.57,9.96,6.46-.05,8.5-.28,9.33-2.5l.15-4.14h-11.17v-6.78h17.89Z"/>
      <path class="cls-1" d="M206.11,0h-8.19l-18.63,33.04h7.91l3.38-6.22h22.03l3.38,6.22h8.19L206.11,0ZM194.44,20.8l7.3-12.23,7.29,12.23h-14.59Z"/>
      <path class="cls-1" d="M262.87,0v17.22c0,11.02-.85,16.95-15.82,17.23-14.96.28-17.78-5.65-18.35-17.93-.56-12.28,0-16.52,0-16.52h6.78v14.4c0,8.75,1.5,13.46,11.29,13.55,9.04.09,9.04-5.36,9.04-12.7V0h7.06Z"/>
      <path class="cls-1" d="M289.12,0h-13.83v33.04h13.83c14.22,0,23.16-1.7,23.16-16.52S301.92,0,289.12,0ZM291.43,27.11c-4.52.09-9.08,0-9.08,0V5.93s6.47.04,9.29,0c13.88-.19,13.82,6.93,13.87,10.61.05,4.08.05,10.27-14.08,10.57Z"/>
    </g>
  </g>
</svg>