<svg width="1148" height="619" viewBox="0 0 1148 619" fill="none" xmlns="http://www.w3.org/2000/svg">
<g clip-path="url(#clip0_275_70)">
<path d="M133.78 200.312L157.809 180.283V60.1123C157.809 46.76 132.445 1.3621 76.3749 0.0268649C20.3052 -1.30837 0 47.4943 0 64.839V208.857L143.992 353.623V495.371C143.992 510.446 119.869 545.896 87.4554 546.644C55.0417 547.392 25.6319 517.242 25.6319 490.097V329.495L3.01708 354.384C3.01708 354.384 0 489.349 0 503.676C0 518.003 21.8672 573.041 86.6944 573.803C151.522 574.564 168.863 506.694 169.624 481.818C170.385 456.943 169.624 346.092 169.624 346.092L26.3795 199.804C26.3795 199.804 25.6319 72.3697 25.6319 63.3302C25.6319 54.2907 51.2637 26.3843 76.148 26.3843C101.032 26.3843 132.685 46.7466 133.446 65.5867C134.207 84.4268 133.793 200.298 133.793 200.298L133.78 200.312Z" fill="#FDFF62"/>
<path d="M289.466 5.154C263.755 6.03525 246.894 29.9893 246.894 50.3916V569.329H269.962L384.371 460.214V582.642L411.872 619V5.154C411.872 5.154 315.192 4.25939 289.466 5.154ZM382.596 421.185L267.746 536.069C267.746 536.069 267.306 98.2998 267.746 74.3457C268.187 50.3916 277.945 29.108 303.657 29.108H382.596V421.185Z" fill="#FDFF62"/>
<path d="M657.938 65.4798C657.537 45.0641 639.808 5.24747 615.859 4.75343C591.909 4.25939 488.14 4.75343 488.14 4.75343V569.329H606.981C622.066 569.329 656.656 552.479 657.537 509.004C658.432 465.542 657.537 316.517 657.537 316.517L602.549 257.085L657.938 200.311C657.938 200.311 658.325 85.8821 657.938 65.4798ZM631.825 325.383C631.825 325.383 632.706 503.689 631.825 514.331C630.931 524.973 614.083 540.942 604.324 541.837C594.565 542.718 512.971 541.837 512.971 541.837V341.352L581.269 276.593L631.825 325.383ZM631.825 189.67L512.971 304.099V29.1081C512.971 29.1081 589.252 28.2134 599.892 29.1081C610.532 30.0027 631.825 38.8552 631.825 54.8246V189.67Z" fill="#FDFF62"/>
<path d="M898.784 57.4951C898.784 31.7652 877.49 4.80683 853.554 4.53978C829.604 4.25938 732.043 4.53978 732.043 4.53978V619L758.649 584.404V375.227L802.103 333.367L877.49 409.409V569.329H898.784V402.559L810.981 316.517L898.784 235.789V57.4951ZM875.728 224.265L758.649 336.919V28.7075C758.649 28.7075 834.917 28.2134 849.108 28.7075C863.299 29.2015 875.728 53.0487 875.728 70.794V224.265Z" fill="#FDFF62"/>
<path d="M1138.25 4.75342L1114.3 28.7075H1005.21V351.112L1120.51 235.789V269.503L999.896 390.141V542.224H1148L1121.39 569.329H977.722V4.75342H1138.25Z" fill="#FDFF62"/>
</g>
<defs>
<clipPath id="clip0_275_70">
<rect width="1148" height="619" fill="white"/>
</clipPath>
</defs>
</svg>
