<?xml version="1.0" encoding="UTF-8"?>
<svg id="Calque_2" data-name="Calque 2" xmlns="http://www.w3.org/2000/svg" viewBox="0 0 859.93 463.59">
  <defs>
    <style>
      .cls-1 {
        fill: #443e30;
      }
    </style>
  </defs>
  <g id="Calque_1-2" data-name="Calque 1">
    <path class="cls-1" d="M100.21,150.02l18-15V45.02C118.21,35.02,99.21,1.02,57.21.02S0,35.57,0,48.56v107.86l107.86,108.42v106.16c0,11.29-18.07,37.84-42.35,38.4s-46.31-22.02-46.31-42.35v-120.28l-16.94,18.64S0,366.49,0,377.22s16.38,51.95,64.94,52.52,61.55-50.26,62.12-68.89,0-101.65,0-101.65L19.76,149.64s-.56-95.44-.56-102.21,19.2-27.67,37.84-27.67,42.35,15.25,42.92,29.36.26,100.89.26,100.89Z"/>
    <path class="cls-1" d="M216.83,3.86c-19.26.66-31.89,18.6-31.89,33.88v388.65h17.28l85.7-81.72v91.69l20.6,27.23V3.86s-72.42-.67-91.69,0ZM286.59,315.44l-86.03,86.04s-.33-327.86,0-345.8c.33-17.94,7.64-33.88,26.9-33.88h59.13v293.64Z"/>
    <path class="cls-1" d="M492.84,49.04c-.3-15.29-13.58-45.11-31.52-45.48s-95.67,0-95.67,0v422.83h89.02c11.3,0,37.21-12.62,37.87-45.18.67-32.55,0-144.16,0-144.16l-41.19-44.51,41.49-42.52s.29-85.7,0-100.98ZM473.28,243.69s.66,133.54,0,141.51c-.67,7.97-13.29,19.93-20.6,20.6-7.31.66-68.43,0-68.43,0v-150.15l51.16-48.5,37.87,36.54ZM473.28,142.05l-89.03,85.7V21.8s57.14-.67,65.11,0c7.97.67,23.92,7.3,23.92,19.26v100.99Z"/>
    <path class="cls-1" d="M673.25,43.06c0-19.27-15.95-39.46-33.88-39.66-17.94-.21-91.02,0-91.02,0v460.19l19.93-25.91v-156.66l32.55-31.35,56.47,56.95v119.77h15.95v-124.9l-65.77-64.44,65.77-60.46V43.06ZM655.98,167.96l-87.7,84.37V21.5s57.13-.37,67.76,0,19.94,18.23,19.94,31.52v114.94Z"/>
    <polygon class="cls-1" points="852.63 3.56 834.69 21.5 752.97 21.5 752.97 262.96 839.34 176.59 839.34 201.84 748.99 292.19 748.99 406.09 859.93 406.09 840 426.39 732.38 426.39 732.38 3.56 852.63 3.56"/>
  </g>
</svg>